<svg xmlns="http://www.w3.org/2000/svg" width="28.97" height="28.97" viewBox="0 0 28.97 28.97">
  <g id="target_icon" transform="translate(-71.265 -14.001)">
    <path id="Path_1" data-name="Path 1" d="M307.085,234.463a2.623,2.623,0,1,1-2.623-2.623,2.623,2.623,0,0,1,2.623,2.623" transform="translate(-218.713 -205.977)" fill="#f73b5d"/>
    <path id="Path_2" data-name="Path 2" d="M111.874,27.388H109.74A11.311,11.311,0,0,0,99.585,17.233V15.1a1.1,1.1,0,0,0-2.2,0v2.135A11.311,11.311,0,0,0,87.234,27.388H85.1a1.1,1.1,0,0,0,0,2.2h2.135A11.311,11.311,0,0,0,97.389,39.739v2.135a1.1,1.1,0,0,0,2.2,0V39.739A11.311,11.311,0,0,0,109.74,29.584h2.135a1.1,1.1,0,0,0,0-2.2ZM99.585,37.543V35.53a1.1,1.1,0,0,0-2.2,0v2.013a9.191,9.191,0,0,1-7.959-7.959h2.013a1.1,1.1,0,0,0,0-2.2H89.43a9.191,9.191,0,0,1,7.959-7.959v2.013a1.1,1.1,0,1,0,2.2,0V19.429a9.191,9.191,0,0,1,7.959,7.959h-2.013a1.1,1.1,0,0,0,0,2.2h2.013A9.191,9.191,0,0,1,99.585,37.543Z" transform="translate(-12.737)" fill="#f73b5d"/>
  </g>
</svg>
